<?xml version="1.0" encoding="UTF-8" standalone="no"?>
<!-- Created with Inkscape (http://www.inkscape.org/) -->

<svg
   width="1133.8602"
   height="436.78867"
   viewBox="0 0 300.00052 115.567"
   version="1.1"
   id="svg241"
   sodipodi:docname="logo.svg"
   inkscape:version="1.2 (dc2aedaf03, 2022-05-15)"
   xmlns:inkscape="http://www.inkscape.org/namespaces/inkscape"
   xmlns:sodipodi="http://sodipodi.sourceforge.net/DTD/sodipodi-0.dtd"
   xmlns="http://www.w3.org/2000/svg"
   xmlns:svg="http://www.w3.org/2000/svg">
  <sodipodi:namedview
     id="namedview243"
     pagecolor="#505050"
     bordercolor="#eeeeee"
     borderopacity="1"
     inkscape:pageshadow="0"
     inkscape:pageopacity="0"
     inkscape:pagecheckerboard="0"
     inkscape:document-units="mm"
     showgrid="false"
     fit-margin-top="0"
     fit-margin-left="0"
     fit-margin-right="0"
     fit-margin-bottom="0"
     units="px"
     inkscape:zoom="0.35464957"
     inkscape:cx="-108.55787"
     inkscape:cy="25.377163"
     inkscape:window-width="1366"
     inkscape:window-height="705"
     inkscape:window-x="-8"
     inkscape:window-y="-8"
     inkscape:window-maximized="1"
     inkscape:current-layer="layer1"
     inkscape:showpageshadow="0"
     inkscape:deskcolor="#505050" />
  <defs
     id="defs238" />
  <g
     inkscape:label="Camada 1"
     inkscape:groupmode="layer"
     id="layer1"
     transform="translate(-65.046515,-118.12981)">
    <g
       id="g10"
       transform="matrix(28.892039,0,0,28.892039,-1814.2795,-3294.883)">
      <path
         d="m 69.437398,121.97336 c 0,0 0.140329,0.15647 0.395203,0.15647 0.238733,0 0.377461,-0.15324 0.377461,-0.33552 0,-0.36616 -0.53877,-0.31616 -0.53877,-0.51941 0,-0.0807 0.07581,-0.13712 0.17259,-0.13712 0.143568,0 0.253254,0.10002 0.253254,0.10002 l 0.09033,-0.16938 c 0,0 -0.116129,-0.12258 -0.341961,-0.12258 -0.219373,0 -0.383903,0.14194 -0.383903,0.33229 0,0.35165 0.540372,0.31616 0.540372,0.52103 0,0.0936 -0.07904,0.13871 -0.16615,0.13871 -0.161309,0 -0.285516,-0.12097 -0.285516,-0.12097 z m -3.505237,-1.084 h 0.16453 l 0.16937,-0.21939 h -0.21133 z m -0.01619,1.22112 h 0.208091 v -1.14531 h -0.208091 z m 6.484641,0 h 0.214533 l -0.403282,-1.14531 h -0.217772 l -0.403263,1.14531 h 0.214532 l 0.286866,-0.90526 c 0.0061,-0.0246 0.0099,-0.0416 0.0099,-0.0416 h 0.0032 z m -3.629463,0 h 0.214533 L 68.5824,120.96517 h -0.217771 l -0.403264,1.14531 h 0.214533 l 0.286848,-0.90526 c 0.0061,-0.0246 0.0099,-0.0416 0.0099,-0.0416 h 0.0032 z m -1.164663,0 h 0.208091 v -1.14529 h -0.208091 z m -1.192086,0 h 0.390362 c 0.353279,0 0.583952,-0.21294 0.583952,-0.57426 0,-0.36133 -0.230673,-0.57103 -0.583952,-0.57103 H 66.4144 Z m 0.208091,-0.17905 v -0.78719 h 0.17099 c 0.229053,0 0.380682,0.13712 0.380682,0.39198 0,0.25809 -0.148408,0.39521 -0.380682,0.39521 z m -1.575988,0.17905 h 0.7033 v -0.17905 H 65.25459 v -0.96624 H 65.0465 Z m 9.610833,-0.13712 c 0,0 0.140348,0.15647 0.395221,0.15647 0.238734,0 0.377444,-0.15324 0.377444,-0.33552 0,-0.36616 -0.538771,-0.31616 -0.538771,-0.51941 0,-0.0807 0.07582,-0.13712 0.172609,-0.13712 0.143568,0 0.253254,0.10002 0.253254,0.10002 l 0.09033,-0.16938 c 0,0 -0.116128,-0.12258 -0.341961,-0.12258 -0.219373,0 -0.38392,0.14194 -0.38392,0.33229 0,0.35165 0.540371,0.31616 0.540371,0.52103 0,0.0936 -0.07903,0.13871 -0.166149,0.13871 -0.161291,0 -0.285498,-0.12097 -0.285498,-0.12097 z m -0.840426,0.13712 h 0.711379 v -0.17905 h -0.503287 v -0.30811 h 0.385522 v -0.17904 h -0.385522 v -0.30004 h 0.477467 v -0.17905 H 73.81691 Z m -1.061419,0 h 0.208091 v -0.42746 h 0.200013 l 0.227452,0.42746 h 0.232275 l -0.235495,-0.42746 c -0.0226,-0.0404 -0.03872,-0.0565 -0.03872,-0.0565 v -0.003 c 0.120987,-0.0484 0.193571,-0.17581 0.193571,-0.31293 0,-0.15163 -0.07258,-0.26132 -0.187111,-0.31293 -0.05001,-0.0226 -0.106466,-0.0323 -0.230673,-0.0323 h -0.369401 z m 0.208091,-0.60813 v -0.35811 h 0.158071 c 0.162928,0 0.209711,0.0678 0.209711,0.17745 0,0.11451 -0.06936,0.18066 -0.18067,0.18066 z m -2.624523,0.0274 c 0,0.33714 0.254873,0.60006 0.592012,0.60006 0.33712,0 0.592012,-0.26292 0.592012,-0.60006 0,-0.32745 -0.254892,-0.58393 -0.592012,-0.58393 -0.337139,0 -0.592012,0.25648 -0.592012,0.58393 z m 0.21455,0 c 0,-0.22584 0.167769,-0.39358 0.377462,-0.39358 0.209692,0 0.377461,0.16774 0.377461,0.39358 0,0.23552 -0.167769,0.40972 -0.377461,0.40972 -0.209693,0 -0.377462,-0.1742 -0.377462,-0.40972 z"
         style="fill:#8d5f9f;fill-opacity:1;fill-rule:evenodd;stroke-width:0.0476069"
         id="path1654" />
      <path
         d="m 66.398455,119.80788 c 0.01727,0.12241 0.02575,0.19635 -0.03881,0.29318 -0.0577,0.0865 -0.17277,0.12483 -0.245679,0.064 -0.07205,-0.0602 -0.03341,-0.17424 0.04815,-0.23372 0.04075,-0.0297 0.06875,-0.0433 0.11503,-0.0673 0.02182,-0.0113 0.104504,-0.0542 0.12131,-0.0561 z m 9.008475,0.48314 -0.06089,-0.0365 c -0.719404,-0.43192 -2.180794,-1.30932 -4.067417,-0.65628 -0.443766,0.1536 -0.976671,0.32501 -1.520191,0.40984 -0.545302,0.0851 -1.101274,0.0831 -1.589069,-0.11106 -0.592553,-0.23587 -0.775022,-0.0467 -0.989878,0.17606 -0.268243,0.27809 -0.554695,0.43605 -0.943312,0.43605 -0.328484,0 -0.625911,-0.13318 -0.8412,-0.34843 -0.215271,-0.21529 -0.34842,-0.51271 -0.34842,-0.84121 0,-0.32849 0.133168,-0.62591 0.34842,-0.84118 0.215289,-0.21528 0.512716,-0.34844 0.8412,-0.34844 0.328502,0 0.62593,0.13316 0.841218,0.34844 0.215253,0.21527 0.34842,0.51269 0.34842,0.84118 0,0.14616 -0.0018,0.2363 -0.153373,0.31416 -0.185277,0.0948 -0.489794,0.0514 -0.723957,0.1305 0.02721,0.1511 0.0095,0.24662 -0.07111,0.34402 -0.119565,0.14443 -0.403929,0.17817 -0.434752,6.2e-4 -0.03703,-0.21281 0.256691,-0.27982 0.33964,-0.34401 -0.0018,-0.043 -0.06798,-0.20529 -0.09211,-0.22534 -0.02363,0.0553 -0.06861,0.12877 -0.100312,0.17586 -0.04079,0.0605 -0.07473,0.11108 -0.117603,0.16459 -0.06701,0.0837 -0.175236,0.22209 -0.364003,0.18775 -0.148497,-0.027 -0.223151,-0.17125 -0.241558,-0.3161 -0.03577,-0.28111 0.08781,-0.65419 0.209513,-0.89803 0.05506,-0.11032 0.137774,-0.25587 0.228477,-0.33037 0.05027,-0.0413 0.0931,-0.0783 0.174516,-0.10236 0.08014,-0.0236 0.169064,-0.0102 0.216549,0.0359 0.144791,0.14055 -0.04948,0.46316 -0.149992,0.58973 -0.01188,0.0148 -0.01887,0.0224 -0.02972,0.0367 l -0.104558,0.11095 c -0.05128,0.0445 -0.09673,0.0854 -0.14956,0.12709 -0.04855,0.0384 -0.105674,0.076 -0.169856,0.11218 -0.06774,0.0381 -0.06091,0.0297 -0.06739,0.071 -0.0063,0.0406 -0.01277,0.0795 -0.01583,0.12081 -0.0088,0.11541 -0.01169,0.26064 0.05304,0.3612 0.02317,0.0361 0.03075,0.047 0.08709,0.052 0.196665,0.0176 0.347538,-0.25173 0.442668,-0.39847 0.01764,-0.0272 0.03496,-0.0577 0.05034,-0.0879 0.0262,-0.0515 0.03528,-0.0436 0.0061,-0.091 -0.043,-0.07 -0.0676,-0.12794 -0.04751,-0.22775 0.01512,-0.0752 0.06191,-0.13465 0.104181,-0.1716 0.142632,-0.12461 0.330841,-0.0331 0.20012,0.15614 -0.02348,0.034 -0.08606,0.0803 -0.115606,0.094 -0.01331,0.006 -0.03057,0.019 -0.04287,0.0291 0.0074,0.0451 0.113663,0.22328 0.146537,0.28455 0.0099,0.0185 0.03709,0.0848 0.0468,0.0948 0.144755,-0.0461 0.572507,-0.0581 0.714383,-0.1225 0.127734,-0.0654 0.131279,-0.15081 0.131279,-0.27836 0,-0.31737 -0.128652,-0.60468 -0.336599,-0.81264 -0.207983,-0.20798 -0.495281,-0.33663 -0.812663,-0.33663 -0.317364,0 -0.604679,0.12865 -0.812663,0.33663 -0.207947,0.20796 -0.336598,0.49527 -0.336598,0.81264 0,0.31737 0.128651,0.60467 0.336598,0.81266 0.207984,0.20795 0.495299,0.3366 0.812663,0.3366 0.372226,0 0.654827,-0.16159 0.910798,-0.42696 0.226247,-0.23454 0.418378,-0.4337 1.038999,-0.18665 0.479214,0.19074 1.027268,0.19244 1.56557,0.10842 0.540139,-0.0843 1.070578,-0.25495 1.512419,-0.40788 1.906505,-0.65993 3.379897,0.22468 4.105202,0.66015 l 0.06089,0.0365 z m -9.071074,-0.9945 c 0.0065,-0.0764 -0.002,-0.11822 0.03122,-0.18351 0.01745,-0.0343 0.08209,-0.0995 0.1284,-0.054 0.05353,0.0526 -0.02375,0.14435 -0.0565,0.17604 -0.01206,0.0116 -0.01764,0.0102 -0.0319,0.0229 -0.01976,0.0174 -0.03881,0.0297 -0.07122,0.0387 z m -0.694879,0.12299 c 0.03012,-0.18919 0.138404,-0.44361 0.220867,-0.59056 0.02461,-0.0439 0.04835,-0.0858 0.07534,-0.12372 l 0.08801,-0.11686 c 0.223421,-0.25461 0.367744,-0.0885 0.226408,0.22114 -0.04565,0.10004 -0.101373,0.17427 -0.157674,0.24601 -0.03854,0.0491 -0.07557,0.0776 -0.09758,0.10144 -0.02418,0.0263 -0.0061,0.016 -0.04948,0.0503 -0.02026,0.016 -0.03698,0.0328 -0.05643,0.0486 -0.03739,0.0303 -0.07475,0.0587 -0.117838,0.0865 -0.03295,0.0213 -0.09382,0.0637 -0.13162,0.0772 z"
         style="fill:#8d5f9f;fill-opacity:1;fill-rule:evenodd;stroke-width:0.0476069"
         id="path1656" />
    </g>
  </g>
</svg>
