<?xml version="1.0" encoding="UTF-8" standalone="no"?>
<!-- Created with Inkscape (http://www.inkscape.org/) -->

<svg
   width="18.897638"
   height="7.279851"
   viewBox="0 0 5 1.9261272"
   version="1.1"
   id="svg241"
   sodipodi:docname="logo-dark.svg"
   inkscape:version="1.2 (dc2aedaf03, 2022-05-15)"
   xmlns:inkscape="http://www.inkscape.org/namespaces/inkscape"
   xmlns:sodipodi="http://sodipodi.sourceforge.net/DTD/sodipodi-0.dtd"
   xmlns="http://www.w3.org/2000/svg"
   xmlns:svg="http://www.w3.org/2000/svg">
  <sodipodi:namedview
     id="namedview243"
     pagecolor="#505050"
     bordercolor="#eeeeee"
     borderopacity="1"
     inkscape:pageshadow="0"
     inkscape:pageopacity="0"
     inkscape:pagecheckerboard="0"
     inkscape:document-units="mm"
     showgrid="false"
     fit-margin-top="0"
     fit-margin-left="0"
     fit-margin-right="0"
     fit-margin-bottom="0"
     units="px"
     inkscape:zoom="4.0124018"
     inkscape:cx="-8.349114"
     inkscape:cy="47.103957"
     inkscape:window-width="1366"
     inkscape:window-height="705"
     inkscape:window-x="-8"
     inkscape:window-y="-8"
     inkscape:window-maximized="1"
     inkscape:current-layer="layer1"
     inkscape:showpageshadow="0"
     inkscape:deskcolor="#505050" />
  <defs
     id="defs238" />
  <g
     inkscape:label="Camada 1"
     inkscape:groupmode="layer"
     id="layer1"
     transform="translate(-65.0465,-118.12983)">
    <g
       id="g90"
       transform="matrix(0.29527518,0,0,0.29527518,45.839883,83.249023)">
      <path
         d="m 72.207133,124.39782 c 0,0 0.228847,0.25517 0.644493,0.25517 0.389324,0 0.61556,-0.24991 0.61556,-0.54716 0,-0.59714 -0.878621,-0.51559 -0.878621,-0.84705 0,-0.13154 0.123622,-0.22361 0.281459,-0.22361 0.234129,0 0.413004,0.16311 0.413004,0.16311 l 0.147303,-0.27622 c 0,0 -0.189381,-0.19991 -0.557666,-0.19991 -0.357752,0 -0.626065,0.23148 -0.626065,0.5419 0,0.57346 0.881233,0.51559 0.881233,0.84968 0,0.15258 -0.128905,0.22622 -0.270955,0.22622 -0.263061,0 -0.465617,-0.19729 -0.465617,-0.19729 z m -5.716305,-1.76777 h 0.268313 l 0.276207,-0.35778 h -0.344635 z m -0.02641,1.99138 h 0.339353 v -1.86776 h -0.339353 z m 10.575088,0 h 0.349858 l -0.657668,-1.86776 h -0.35514 l -0.657638,1.86776 h 0.349858 l 0.467818,-1.47629 c 0.01,-0.0401 0.01614,-0.0679 0.01614,-0.0679 h 0.0053 z m -5.918891,0 h 0.349858 l -0.657668,-1.86776 h -0.355139 l -0.657639,1.86776 h 0.349858 l 0.467789,-1.47629 c 0.01,-0.0401 0.01614,-0.0679 0.01614,-0.0679 h 0.0053 z m -1.899322,0 h 0.339353 v -1.86772 h -0.339353 z m -1.944041,0 h 0.636599 c 0.576123,0 0.952302,-0.34725 0.952302,-0.93649 0,-0.58926 -0.376179,-0.93123 -0.952302,-0.93123 h -0.636599 z m 0.339353,-0.29199 v -1.28374 h 0.278848 c 0.373538,0 0.620812,0.22361 0.620812,0.63924 0,0.42089 -0.242022,0.6445 -0.620812,0.6445 z m -2.570106,0.29199 h 1.146935 v -0.29199 h -0.807582 v -1.57573 H 65.0465 Z m 15.673251,-0.22361 c 0,0 0.228877,0.25517 0.644522,0.25517 0.389325,0 0.615531,-0.24991 0.615531,-0.54716 0,-0.59714 -0.878621,-0.51559 -0.878621,-0.84705 0,-0.13154 0.123652,-0.22361 0.281488,-0.22361 0.234129,0 0.413005,0.16311 0.413005,0.16311 l 0.147302,-0.27622 c 0,0 -0.18938,-0.19991 -0.557666,-0.19991 -0.357751,0 -0.626094,0.23148 -0.626094,0.5419 0,0.57346 0.881233,0.51559 0.881233,0.84968 0,0.15258 -0.128875,0.22622 -0.270955,0.22622 -0.263032,0 -0.465587,-0.19729 -0.465587,-0.19729 z m -1.370559,0.22361 h 1.16011 v -0.29199 h -0.820756 v -0.50246 h 0.628706 V 123.535 h -0.628706 v -0.4893 h 0.778649 v -0.29199 h -1.118003 z m -1.730951,0 h 0.339353 v -0.6971 h 0.326179 l 0.370926,0.6971 h 0.378791 l -0.384043,-0.6971 c -0.03685,-0.0658 -0.06315,-0.0921 -0.06315,-0.0921 v -0.005 c 0.197304,-0.0789 0.315674,-0.28672 0.315674,-0.51033 0,-0.24728 -0.11837,-0.42615 -0.305139,-0.51033 -0.08155,-0.0368 -0.173624,-0.0526 -0.376179,-0.0526 h -0.602415 z m 0.339353,-0.99173 v -0.584 h 0.25778 c 0.265702,0 0.341994,0.11048 0.341994,0.28938 0,0.18675 -0.113118,0.29462 -0.294634,0.29462 z m -4.280047,0.0447 c 0,0.5498 0.415645,0.97858 0.965448,0.97858 0.549772,0 0.965447,-0.42878 0.965447,-0.97858 0,-0.534 -0.415675,-0.95226 -0.965447,-0.95226 -0.549803,0 -0.965448,0.41826 -0.965448,0.95226 z m 0.349887,0 c 0,-0.36829 0.273596,-0.64185 0.615561,-0.64185 0.341964,0 0.61556,0.27356 0.61556,0.64185 0,0.38408 -0.273596,0.66817 -0.61556,0.66817 -0.341965,0 -0.615561,-0.28409 -0.615561,-0.66817 z"
         style="fill:#564a60;fill-opacity:1;fill-rule:evenodd;stroke-width:0.0776369"
         id="path1654" />
      <path
         d="m 67.251255,120.86638 c 0.02817,0.19962 0.04199,0.32021 -0.06329,0.47812 -0.0941,0.14108 -0.281753,0.20357 -0.400651,0.10429 -0.11749,-0.0981 -0.05449,-0.28414 0.07852,-0.38114 0.06646,-0.0485 0.11212,-0.0706 0.18759,-0.10977 0.03559,-0.0185 0.170425,-0.0884 0.197832,-0.0915 z m 14.690931,0.7879 -0.0993,-0.0596 c -1.173197,-0.70437 -3.556417,-2.13522 -6.633103,-1.07025 -0.723689,0.25049 -1.592745,0.53003 -2.479113,0.66837 -0.889272,0.13881 -1.795946,0.13549 -2.591438,-0.18112 -0.966328,-0.38465 -1.263897,-0.0762 -1.614283,0.28711 -0.437447,0.45352 -0.90459,0.71111 -1.538343,0.71111 -0.535688,0 -1.02073,-0.21718 -1.371821,-0.56821 -0.351061,-0.35109 -0.5682,-0.83612 -0.5682,-1.37184 0,-0.53569 0.217169,-1.02073 0.5682,-1.37179 0.351091,-0.35108 0.836133,-0.56823 1.371821,-0.56823 0.535718,0 1.02076,0.21715 1.37185,0.56823 0.351032,0.35106 0.5682,0.8361 0.5682,1.37179 0,0.23836 -0.0029,0.38535 -0.25012,0.51233 -0.302147,0.15465 -0.79875,0.0838 -1.180621,0.21281 0.04437,0.24642 0.01555,0.40219 -0.115964,0.56104 -0.194985,0.23552 -0.658724,0.29055 -0.708989,10e-4 -0.06039,-0.34704 0.418609,-0.45633 0.553881,-0.56101 -0.0029,-0.0701 -0.110858,-0.33478 -0.150208,-0.36748 -0.03853,0.0902 -0.111885,0.21 -0.163588,0.28679 -0.06652,0.0987 -0.121862,0.18115 -0.191786,0.26841 -0.109274,0.13644 -0.285773,0.36219 -0.593612,0.30619 -0.242169,-0.0441 -0.363913,-0.27927 -0.393931,-0.51549 -0.05833,-0.45844 0.143194,-1.06686 0.341671,-1.46451 0.08979,-0.1799 0.224681,-0.41726 0.372599,-0.53876 0.08198,-0.0674 0.151822,-0.12773 0.284599,-0.16692 0.130695,-0.0385 0.275708,-0.0167 0.353145,0.0585 0.236124,0.22922 -0.08069,0.75533 -0.244605,0.96173 -0.01937,0.0242 -0.03078,0.0366 -0.04847,0.0598 l -0.170513,0.18094 c -0.08363,0.0726 -0.157749,0.13922 -0.2439,0.20726 -0.07917,0.0626 -0.172333,0.12394 -0.277,0.18293 -0.110476,0.0622 -0.09933,0.0485 -0.10989,0.11577 -0.01027,0.0662 -0.02083,0.12972 -0.02582,0.19702 -0.01438,0.18821 -0.01907,0.42506 0.0865,0.58904 0.03779,0.0588 0.05015,0.0766 0.142021,0.0848 0.32072,0.0287 0.566762,-0.41052 0.721899,-0.64982 0.02876,-0.0444 0.05701,-0.0941 0.0821,-0.14328 0.04272,-0.0839 0.05754,-0.0711 0.01,-0.14838 -0.07013,-0.11412 -0.110242,-0.20865 -0.07747,-0.37141 0.02465,-0.12271 0.10097,-0.21959 0.169897,-0.27984 0.232603,-0.20322 0.539532,-0.0539 0.326354,0.25462 -0.03829,0.0554 -0.140348,0.13093 -0.188529,0.15334 -0.02171,0.0101 -0.04985,0.031 -0.06992,0.0474 0.01203,0.0735 0.185361,0.36412 0.238971,0.46404 0.01614,0.0302 0.06048,0.1383 0.07632,0.15467 0.236065,-0.0752 0.93364,-0.0947 1.16501,-0.19978 0.208307,-0.10663 0.214088,-0.24593 0.214088,-0.45395 0,-0.51756 -0.209804,-0.9861 -0.548922,-1.32524 -0.339177,-0.33917 -0.807699,-0.54897 -1.325283,-0.54897 -0.517554,0 -0.986105,0.2098 -1.325282,0.54897 -0.339119,0.33914 -0.548922,0.80768 -0.548922,1.32524 0,0.51757 0.209803,0.98609 0.548922,1.32529 0.339177,0.33912 0.807728,0.54891 1.325282,0.54891 0.607022,0 1.067885,-0.26352 1.48532,-0.69627 0.368961,-0.38249 0.682287,-0.70728 1.69439,-0.3044 0.781496,0.31106 1.675258,0.31383 2.553116,0.17681 0.880852,-0.13749 1.745887,-0.41577 2.466437,-0.66516 3.10911,-1.0762 5.511902,0.36641 6.694723,1.07657 l 0.0993,0.0596 z M 67.14917,120.03245 c 0.01056,-0.12459 -0.0032,-0.19279 0.05091,-0.29926 0.02846,-0.056 0.133864,-0.16231 0.209393,-0.0881 0.0873,0.0858 -0.03873,0.23541 -0.09214,0.28709 -0.01966,0.0189 -0.02876,0.0167 -0.05203,0.0373 -0.03222,0.0283 -0.06329,0.0485 -0.11614,0.0631 z m -1.133202,0.20057 c 0.04912,-0.30853 0.225707,-0.72342 0.360187,-0.96308 0.04014,-0.0716 0.07885,-0.13986 0.122859,-0.20176 l 0.143518,-0.19057 c 0.364353,-0.41522 0.599714,-0.14429 0.369224,0.36064 -0.07444,0.16314 -0.165319,0.2842 -0.257134,0.40119 -0.06285,0.0801 -0.123241,0.12657 -0.159128,0.16543 -0.03944,0.0428 -0.01,0.0261 -0.08069,0.082 -0.03304,0.0261 -0.0603,0.0535 -0.09202,0.0792 -0.06097,0.0494 -0.121892,0.0957 -0.192168,0.14109 -0.05373,0.0347 -0.152995,0.10385 -0.214645,0.12587 z"
         style="fill:#564a60;fill-opacity:1;fill-rule:evenodd;stroke-width:0.0776369"
         id="path1656" />
    </g>
  </g>
</svg>
