<?xml version="1.0" encoding="UTF-8" standalone="no"?>
<!-- Created with Inkscape (http://www.inkscape.org/) -->

<svg
   width="312.95801"
   height="44.000011"
   viewBox="0 0 82.80347 11.64167"
   version="1.1"
   id="svg241"
   sodipodi:docname="logo-title.svg"
   inkscape:version="1.1.2 (0a00cf5339, 2022-02-04, custom)"
   xmlns:inkscape="http://www.inkscape.org/namespaces/inkscape"
   xmlns:sodipodi="http://sodipodi.sourceforge.net/DTD/sodipodi-0.dtd"
   xmlns="http://www.w3.org/2000/svg"
   xmlns:svg="http://www.w3.org/2000/svg">
  <sodipodi:namedview
     id="namedview243"
     pagecolor="#505050"
     bordercolor="#eeeeee"
     borderopacity="1"
     inkscape:pageshadow="0"
     inkscape:pageopacity="0"
     inkscape:pagecheckerboard="0"
     inkscape:document-units="mm"
     showgrid="false"
     fit-margin-top="0"
     fit-margin-left="0"
     fit-margin-right="0"
     fit-margin-bottom="0"
     units="px"
     inkscape:zoom="4.0124018"
     inkscape:cx="86.731095"
     inkscape:cy="-28.661138"
     inkscape:window-width="1366"
     inkscape:window-height="705"
     inkscape:window-x="-8"
     inkscape:window-y="-8"
     inkscape:window-maximized="1"
     inkscape:current-layer="layer1" />
  <defs
     id="defs238" />
  <g
     inkscape:label="Camada 1"
     inkscape:groupmode="layer"
     id="layer1"
     transform="translate(-65.046499,-122.27227)">
    <path
       d="m 100.06184,132.66616 c 0,0 1.11905,1.24778 3.15155,1.24778 1.90379,0 3.01008,-1.22206 3.01008,-2.6756 0,-2.92 -4.29644,-2.52123 -4.29644,-4.14206 0,-0.64323 0.60451,-1.09345 1.37633,-1.09345 1.14488,0 2.01958,0.79761 2.01958,0.79761 l 0.72031,-1.35071 c 0,0 -0.92607,-0.97756 -2.72698,-0.97756 -1.7494,0 -3.06144,1.13193 -3.06144,2.64988 0,2.80421 4.30921,2.52123 4.30921,4.15492 0,0.74611 -0.63034,1.10621 -1.32497,1.10621 -1.28636,0 -2.27685,-0.96475 -2.27685,-0.96475 z m -27.952605,-8.64435 h 1.312044 l 1.350646,-1.74954 h -1.685257 z m -0.129144,9.7378 h 1.659428 v -9.1333 h -1.659428 z m 51.711939,0 h 1.7108 l -3.21598,-9.1333 h -1.73663 l -3.21583,9.1333 h 1.71079 l 2.28762,-7.21903 c 0.0489,-0.19608 0.0789,-0.33203 0.0789,-0.33203 h 0.0259 z m -28.943242,0 h 1.710798 l -3.215982,-9.1333 h -1.736621 l -3.21584,9.1333 h 1.710797 l 2.287478,-7.21903 c 0.0489,-0.19608 0.07892,-0.33203 0.07892,-0.33203 h 0.02592 z m -9.287641,0 h 1.659428 v -9.13311 h -1.659428 z m -9.506317,0 h 3.112955 c 2.817228,0 4.656735,-1.69805 4.656735,-4.57942 0,-2.88146 -1.839507,-4.55369 -4.656735,-4.55369 H 75.95483 Z m 1.659429,-1.42783 v -6.27745 h 1.36356 c 1.826593,0 3.035757,1.09344 3.035757,3.12586 0,2.05815 -1.183482,3.15159 -3.035757,3.15159 z m -12.56776,1.42783 h 5.608486 v -1.42783 h -3.949058 v -7.70528 h -1.659423 z m 76.641841,-1.09345 c 0,0 1.1192,1.24778 3.1517,1.24778 1.90379,0 3.00993,-1.22206 3.00993,-2.6756 0,-2.92 -4.29644,-2.52123 -4.29644,-4.14206 0,-0.64323 0.60466,-1.09345 1.37647,-1.09345 1.14489,0 2.01959,0.79761 2.01959,0.79761 l 0.7203,-1.35071 c 0,0 -0.92606,-0.97756 -2.72697,-0.97756 -1.7494,0 -3.06159,1.13193 -3.06159,2.64988 0,2.80421 4.30921,2.52123 4.30921,4.15492 0,0.74611 -0.63019,1.10621 -1.32496,1.10621 -1.28622,0 -2.27671,-0.96475 -2.27671,-0.96475 z m -6.702,1.09345 h 5.67291 v -1.42783 h -4.01348 v -2.45701 h 3.07436 v -1.42778 h -3.07436 v -2.39266 h 3.80758 v -1.42783 h -5.46701 z m -8.46431,0 h 1.65943 v -3.4088 h 1.595 l 1.81382,3.4088 h 1.85228 l -1.87796,-3.4088 c -0.1802,-0.32176 -0.3088,-0.45037 -0.3088,-0.45037 v -0.0245 c 0.96481,-0.38582 1.54364,-1.40206 1.54364,-2.4955 0,-1.2092 -0.57883,-2.08387 -1.49213,-2.49551 -0.39877,-0.17995 -0.84901,-0.25721 -1.8395,-0.25721 h -2.9458 z m 1.65943,-4.84954 v -2.85574 h 1.26053 c 1.29928,0 1.67235,0.54024 1.67235,1.41506 0,0.9132 -0.55315,1.44068 -1.44076,1.44068 z m -20.92934,0.21858 c 0,2.68851 2.0325,4.78524 4.72102,4.78524 2.68837,0 4.72102,-2.09673 4.72102,-4.78524 0,-2.61124 -2.03265,-4.65653 -4.72102,-4.65653 -2.68852,0 -4.72102,2.04529 -4.72102,4.65653 z m 1.71094,0 c 0,-1.80093 1.33788,-3.13863 3.01008,-3.13863 1.6722,0 3.01008,1.3377 3.01008,3.13863 0,1.87815 -1.33788,3.26734 -3.01008,3.26734 -1.6722,0 -3.01008,-1.38919 -3.01008,-3.26734 z"
       style="fill:#ffffff;fill-opacity:1;fill-rule:evenodd;stroke-width:0.379643"
       id="path1654" />
  </g>
</svg>
