<?xml version="1.0" encoding="UTF-8" standalone="no"?>
<!-- Created with Inkscape (http://www.inkscape.org/) -->

<svg
   width="18.897635"
   height="7.2798615"
   viewBox="0 0 4.9999991 1.92613"
   version="1.1"
   id="svg241"
   sodipodi:docname="logo.svg"
   inkscape:version="1.2 (dc2aedaf03, 2022-05-15)"
   xmlns:inkscape="http://www.inkscape.org/namespaces/inkscape"
   xmlns:sodipodi="http://sodipodi.sourceforge.net/DTD/sodipodi-0.dtd"
   xmlns="http://www.w3.org/2000/svg"
   xmlns:svg="http://www.w3.org/2000/svg">
  <sodipodi:namedview
     id="namedview243"
     pagecolor="#505050"
     bordercolor="#eeeeee"
     borderopacity="1"
     inkscape:pageshadow="0"
     inkscape:pageopacity="0"
     inkscape:pagecheckerboard="0"
     inkscape:document-units="mm"
     showgrid="false"
     fit-margin-top="0"
     fit-margin-left="0"
     fit-margin-right="0"
     fit-margin-bottom="0"
     units="px"
     inkscape:zoom="4.0124018"
     inkscape:cx="40.748661"
     inkscape:cy="7.2275912"
     inkscape:window-width="1366"
     inkscape:window-height="705"
     inkscape:window-x="-8"
     inkscape:window-y="-8"
     inkscape:window-maximized="1"
     inkscape:current-layer="layer1"
     inkscape:showpageshadow="0"
     inkscape:deskcolor="#505050" />
  <defs
     id="defs238" />
  <g
     inkscape:label="Camada 1"
     inkscape:groupmode="layer"
     id="layer1"
     transform="translate(-65.046497,-118.12985)">
    <path
       d="m 67.160863,119.98064 c 0,0 0.06757,0.0753 0.190303,0.0753 0.114958,0 0.18176,-0.0738 0.18176,-0.16156 0,-0.17632 -0.259435,-0.15224 -0.259435,-0.25011 0,-0.0389 0.0365,-0.066 0.08311,-0.066 0.06913,0 0.121951,0.0482 0.121951,0.0482 l 0.0435,-0.0816 c 0,0 -0.05592,-0.059 -0.164666,-0.059 -0.105635,0 -0.184862,0.0683 -0.184862,0.16001 0,0.16933 0.260207,0.15224 0.260207,0.25089 0,0.0451 -0.03806,0.0668 -0.08001,0.0668 -0.07767,0 -0.137485,-0.0583 -0.137485,-0.0583 z m -1.687888,-0.52198 h 0.07923 l 0.08156,-0.10565 h -0.101762 z m -0.0078,0.58801 h 0.100203 v -0.55151 h -0.100203 z m 3.12257,0 h 0.103305 l -0.194194,-0.55151 h -0.104865 l -0.194184,0.55151 h 0.103304 l 0.138136,-0.43592 c 0.0029,-0.0118 0.0048,-0.02 0.0048,-0.02 h 0.0015 z m -1.747707,0 h 0.103305 l -0.194194,-0.55151 h -0.104864 l -0.194185,0.55151 h 0.103305 l 0.138127,-0.43592 c 0.0029,-0.0118 0.0048,-0.02 0.0048,-0.02 h 0.0015 z m -0.560824,0 h 0.100203 v -0.5515 h -0.100203 z m -0.574029,0 h 0.187972 c 0.170116,0 0.281193,-0.10254 0.281193,-0.27653 0,-0.17399 -0.111077,-0.27497 -0.281193,-0.27497 h -0.187972 z m 0.100203,-0.0862 v -0.37906 h 0.08234 c 0.110297,0 0.183311,0.066 0.183311,0.18875 0,0.12428 -0.07146,0.19031 -0.183311,0.19031 z m -0.758891,0.0862 h 0.338663 v -0.0862 h -0.238462 v -0.46528 H 65.0465 Z m 4.627935,-0.066 c 0,0 0.06758,0.0753 0.190312,0.0753 0.114959,0 0.181752,-0.0738 0.181752,-0.16156 0,-0.17632 -0.259436,-0.15224 -0.259436,-0.25011 0,-0.0389 0.03651,-0.066 0.08312,-0.066 0.06913,0 0.12195,0.0482 0.12195,0.0482 l 0.0435,-0.0816 c 0,0 -0.05592,-0.059 -0.164666,-0.059 -0.105635,0 -0.18487,0.0683 -0.18487,0.16001 0,0.16933 0.260207,0.15224 0.260207,0.25089 0,0.0451 -0.03806,0.0668 -0.08001,0.0668 -0.07767,0 -0.137476,-0.0583 -0.137476,-0.0583 z m -0.404693,0.066 h 0.342553 v -0.0862 h -0.24235 v -0.14837 h 0.185642 v -0.0862 h -0.185642 v -0.14448 h 0.229917 v -0.0862 h -0.33012 z m -0.511108,0 h 0.100202 v -0.20584 h 0.09631 l 0.109526,0.20584 h 0.111848 l -0.113398,-0.20584 c -0.01088,-0.0194 -0.01864,-0.0272 -0.01864,-0.0272 v -0.001 c 0.05826,-0.0233 0.09321,-0.0847 0.09321,-0.15069 0,-0.073 -0.03495,-0.12583 -0.0901,-0.15068 -0.02408,-0.0109 -0.05127,-0.0156 -0.111076,-0.0156 h -0.177879 z m 0.100202,-0.29284 v -0.17244 h 0.07612 c 0.07845,0 0.100983,0.0327 0.100983,0.0854 0,0.0551 -0.0334,0.087 -0.087,0.087 z m -1.263794,0.0132 c 0,0.16235 0.122729,0.28895 0.285073,0.28895 0.162334,0 0.285073,-0.1266 0.285073,-0.28895 0,-0.15767 -0.122739,-0.28118 -0.285073,-0.28118 -0.162344,0 -0.285073,0.12351 -0.285073,0.28118 z m 0.103313,0 c 0,-0.10874 0.08079,-0.18952 0.18176,-0.18952 0.100974,0 0.18176,0.0808 0.18176,0.18952 0,0.11342 -0.08079,0.1973 -0.18176,0.1973 -0.100974,0 -0.18176,-0.0839 -0.18176,-0.1973 z"
       style="fill:#8d5f9f;fill-opacity:1;fill-rule:evenodd;stroke-width:0.0229243"
       id="path1654" />
    <path
       d="m 65.697511,118.93789 c 0.0083,0.0589 0.0124,0.0945 -0.01869,0.14117 -0.02778,0.0417 -0.08319,0.0601 -0.118303,0.0308 -0.03469,-0.029 -0.01609,-0.0839 0.02319,-0.11254 0.01962,-0.0143 0.0331,-0.0208 0.05539,-0.0324 0.01051,-0.005 0.05032,-0.0261 0.05841,-0.027 z m 4.33788,0.23265 -0.02932,-0.0176 c -0.346417,-0.20798 -1.050125,-0.63048 -1.958596,-0.31602 -0.213688,0.074 -0.4703,0.1565 -0.732023,0.19735 -0.262581,0.041 -0.530299,0.04 -0.765189,-0.0535 -0.285334,-0.11358 -0.373199,-0.0225 -0.476659,0.0848 -0.129168,0.13391 -0.267104,0.20997 -0.454236,0.20997 -0.158176,0 -0.301397,-0.0641 -0.405066,-0.16778 -0.10366,-0.10367 -0.167775,-0.24688 -0.167775,-0.40507 0,-0.15818 0.06412,-0.30139 0.167775,-0.40505 0.103669,-0.10367 0.24689,-0.16779 0.405066,-0.16779 0.158185,0 0.301406,0.0641 0.405074,0.16779 0.103652,0.10366 0.167776,0.24687 0.167776,0.40505 0,0.0704 -8.67e-4,0.11379 -0.07385,0.15128 -0.08922,0.0457 -0.235852,0.0247 -0.348609,0.0628 0.0131,0.0728 0.0046,0.11876 -0.03424,0.16566 -0.05757,0.0695 -0.194505,0.0858 -0.209348,3e-4 -0.01783,-0.10248 0.123606,-0.13475 0.163548,-0.16566 -8.67e-4,-0.0207 -0.03273,-0.0988 -0.04435,-0.10851 -0.01138,0.0266 -0.03304,0.062 -0.0483,0.0847 -0.01964,0.0291 -0.03598,0.0535 -0.05663,0.0793 -0.03227,0.0403 -0.08438,0.10695 -0.17528,0.0904 -0.07151,-0.013 -0.107454,-0.0825 -0.116318,-0.15221 -0.01722,-0.13537 0.04228,-0.31502 0.100888,-0.43243 0.02651,-0.0531 0.06634,-0.12321 0.110019,-0.15909 0.02421,-0.0199 0.04483,-0.0377 0.08404,-0.0493 0.03859,-0.0114 0.08141,-0.005 0.104276,0.0173 0.06972,0.0677 -0.02383,0.22303 -0.07223,0.28397 -0.0057,0.007 -0.0091,0.0108 -0.01431,0.0177 l -0.05035,0.0534 c -0.02469,0.0214 -0.04658,0.0411 -0.07202,0.0612 -0.02338,0.0185 -0.05089,0.0366 -0.08179,0.054 -0.03262,0.0183 -0.02933,0.0143 -0.03245,0.0342 -0.003,0.0195 -0.0061,0.0383 -0.0076,0.0582 -0.0042,0.0556 -0.0056,0.12551 0.02554,0.17393 0.01116,0.0174 0.01481,0.0226 0.04194,0.025 0.0947,0.008 0.167351,-0.12121 0.213159,-0.19187 0.0085,-0.0131 0.01684,-0.0278 0.02424,-0.0423 0.01262,-0.0248 0.01699,-0.021 0.0029,-0.0438 -0.02071,-0.0337 -0.03255,-0.0616 -0.02288,-0.10967 0.0073,-0.0362 0.02981,-0.0648 0.05017,-0.0826 0.06868,-0.06 0.159311,-0.0159 0.09636,0.0752 -0.01131,0.0164 -0.04144,0.0387 -0.05567,0.0453 -0.0064,0.003 -0.01472,0.009 -0.02064,0.014 0.0036,0.0217 0.05473,0.10752 0.07056,0.13702 0.0048,0.009 0.01786,0.0408 0.02254,0.0456 0.0697,-0.0222 0.275681,-0.028 0.343999,-0.059 0.06151,-0.0315 0.06321,-0.0726 0.06321,-0.13404 0,-0.15282 -0.06195,-0.29117 -0.162083,-0.39131 -0.100151,-0.10015 -0.238494,-0.1621 -0.391324,-0.1621 -0.152822,0 -0.291173,0.0619 -0.391325,0.1621 -0.100133,0.10014 -0.162083,0.23849 -0.162083,0.39131 0,0.15283 0.06195,0.29117 0.162083,0.39133 0.100152,0.10013 0.238503,0.16208 0.391325,0.16208 0.179239,0 0.315321,-0.0778 0.438579,-0.20559 0.108945,-0.11294 0.201463,-0.20885 0.500313,-0.0899 0.230757,0.0918 0.494663,0.0927 0.753873,0.0522 0.260095,-0.0406 0.515519,-0.12277 0.72828,-0.19641 0.918046,-0.31778 1.627533,0.10819 1.976791,0.31788 l 0.02932,0.0176 z m -4.368023,-0.47889 c 0.0031,-0.0368 -9.63e-4,-0.0569 0.01503,-0.0884 0.0084,-0.0165 0.03953,-0.0479 0.06183,-0.026 0.02578,0.0253 -0.01144,0.0695 -0.02721,0.0848 -0.0058,0.006 -0.0085,0.005 -0.01536,0.011 -0.0095,0.008 -0.01869,0.0143 -0.03429,0.0186 z m -0.334608,0.0592 c 0.0145,-0.0911 0.06665,-0.21361 0.106355,-0.28437 0.01185,-0.0211 0.02328,-0.0413 0.03628,-0.0596 l 0.04238,-0.0563 c 0.107584,-0.1226 0.177081,-0.0426 0.109023,0.10649 -0.02198,0.0482 -0.04881,0.0839 -0.07593,0.11846 -0.01856,0.0236 -0.03639,0.0374 -0.04699,0.0489 -0.01164,0.0127 -0.0029,0.008 -0.02383,0.0242 -0.0098,0.008 -0.01781,0.0158 -0.02717,0.0234 -0.018,0.0146 -0.03599,0.0283 -0.05674,0.0416 -0.01587,0.0103 -0.04518,0.0307 -0.06338,0.0372 z"
       style="fill:#8d5f9f;fill-opacity:1;fill-rule:evenodd;stroke-width:0.0229243"
       id="path1656" />
  </g>
</svg>
